<svg width="64" height="64" viewBox="0 0 24 24" fill="none" xmlns="http://www.w3.org/2000/svg">
  <!-- Nền hình vuông bo tròn cho biểu tượng -->
  <rect x="2" y="2" width="20" height="20" rx="4" ry="4" fill="#60A5FA"/>
  
  <!-- Lịch cơ bản -->
  <rect x="4" y="6" width="16" height="14" rx="2" ry="2" fill="#FFFFFF"/>
  
  <!-- Đầu lịch (thanh màu) -->
  <rect x="4" y="4" width="16" height="4" rx="2" ry="2" fill="#4B5563"/>
  <rect x="5" y="5" width="2" height="2" rx="1" ry="1" fill="#FCA5A5"/> <!-- Đỏ -->
  <rect x="8" y="5" width="2" height="2" rx="1" ry="1" fill="#FCD34D"/> <!-- Vàng -->
  <rect x="11" y="5" width="2" height="2" rx="1" ry="1" fill="#86EFAC"/> <!-- Xanh lá -->

  <!-- Các ngày trong tuần (ô vuông nhỏ) -->
  <rect x="5" y="9" width="3" height="3" rx="0.5" ry="0.5" fill="#E5E7EB"/>
  <rect x="9" y="9" width="3" height="3" rx="0.5" ry="0.5" fill="#E5E7EB"/>
  <rect x="13" y="9" width="3" height="3" rx="0.5" ry="0.5" fill="#E5E7EB"/>
  <rect x="17" y="9" width="3" height="3" rx="0.5" ry="0.5" fill="#E5E7EB"/>

  <rect x="5" y="13" width="3" height="3" rx="0.5" ry="0.5" fill="#E5E7EB"/>
  <rect x="9" y="13" width="3" height="3" rx="0.5" ry="0.5" fill="#E5E7EB"/>
  <rect x="13" y="13" width="3" height="3" rx="0.5" ry="0.5" fill="#E5E7EB"/>
  <rect x="17" y="13" width="3" height="3" rx="0.5" ry="0.5" fill="#E5E7EB"/>
  
  <!-- Hàng cuối cùng với 7 ô vuông nhỏ hơn để tượng trưng cho một tuần hoàn chỉnh hoặc các ngày trong tuần -->
  <circle cx="6.5" cy="18" r="1.5" fill="#4ADE80"/> <!-- Ngày 1 (Xanh lá - đã hoàn thành) -->
  <circle cx="9.5" cy="18" r="1.5" fill="#4ADE80"/> <!-- Ngày 2 -->
  <circle cx="12.5" cy="18" r="1.5" fill="#4ADE80"/> <!-- Ngày 3 -->
  <circle cx="15.5" cy="18" r="1.5" fill="#4ADE80"/> <!-- Ngày 4 -->
  <circle cx="18.5" cy="18" r="1.5" fill="#4ADE80"/> <!-- Ngày 5 -->
  
  <!-- Biểu tượng mũi tên đi lên (chỉ sự tiến bộ, hoàn thành) -->
  <path d="M12 10.5 L15 13.5 L12 16.5 L9 13.5 Z" fill="#60A5FA" transform="translate(0, -2) scale(0.6) translate(8, 8)"/>
  <path d="M12 10.5 L15 13.5 L12 16.5 L9 13.5 Z" fill="#FFFFFF" transform="translate(0, -2) scale(0.6) translate(8, 8)"/>

</svg>